<svg width="39" height="39" viewBox="0 0 39 39" fill="none" xmlns="http://www.w3.org/2000/svg">
<g clip-path="url(#clip0)">
<rect x="-8" y="-9" width="53" height="55" fill="#429CEF"/>
<path d="M21.2729 4.16648C21.2729 4.16648 20.603 1.45671 23.5564 1.9743C26.5097 2.4919 25.1396 4.74497 24.5002 4.79064" fill="#C2935B"/>
<path d="M21.2729 4.16648C21.2729 4.16648 20.603 1.45671 23.5564 1.9743C26.5097 2.4919 25.1396 4.74497 24.5002 4.79064" stroke="black" stroke-width="1.3491" stroke-miterlimit="10"/>
<path d="M26.7229 8.94663C26.7229 8.94663 27.3166 5.71926 23.7847 4.50139C20.2529 3.28351 13.2958 3.22262 9.97708 8.56604C6.65837 13.9095 2 23.4393 2 36.3031C2 49.1517 7.14552 56.6721 14.7268 57.281C21.486 57.8291 28.9759 57.9052 33.9083 52.4248C38.5515 47.264 38.4906 40.6723 36.4506 34.4154C33.7409 26.0882 29.9502 21.0797 29.9502 21.0797L26.7229 8.94663Z" fill="#BF5931" stroke="black" stroke-width="1.3491" stroke-miterlimit="10"/>
<path d="M28.9912 21.6886C28.9912 21.6886 36.2984 17.9741 34.0606 12.5546C31.8227 7.13505 27.4384 8.70306 27.4384 8.70306L26.0683 9.17499" fill="#BF5931"/>
<path d="M28.9912 21.6886C28.9912 21.6886 36.2984 17.9741 34.0606 12.5546C31.8227 7.13505 27.4384 8.70306 27.4384 8.70306L26.0683 9.17499" stroke="black" stroke-width="1.3491" stroke-miterlimit="10"/>
<path d="M21.8057 12.2653C22.4531 12.2653 22.9779 11.7405 22.9779 11.0931C22.9779 10.4457 22.4531 9.92093 21.8057 9.92093C21.1583 9.92093 20.6335 10.4457 20.6335 11.0931C20.6335 11.7405 21.1583 12.2653 21.8057 12.2653Z" fill="black"/>
<path d="M21.2881 11.1084C21.4731 11.1084 21.623 10.9584 21.623 10.7734C21.623 10.5885 21.4731 10.4385 21.2881 10.4385C21.1031 10.4385 20.9532 10.5885 20.9532 10.7734C20.9532 10.9584 21.1031 11.1084 21.2881 11.1084Z" fill="white"/>
<path d="M28.2714 13.2016C29.2488 12.839 29.873 12.0913 29.6653 11.5316C29.4577 10.9719 28.497 10.8121 27.5195 11.1747C26.542 11.5373 25.9179 12.285 26.1255 12.8447C26.3331 13.4044 27.2939 13.5642 28.2714 13.2016Z" fill="black"/>
<path d="M25.9465 10.0732C26.4846 10.0732 26.9208 9.63696 26.9208 9.09887C26.9208 8.56078 26.4846 8.12457 25.9465 8.12457C25.4084 8.12457 24.9722 8.56078 24.9722 9.09887C24.9722 9.63696 25.4084 10.0732 25.9465 10.0732Z" fill="black"/>
<path d="M25.505 9.19022C25.69 9.19022 25.8399 9.04027 25.8399 8.8553C25.8399 8.67033 25.69 8.52039 25.505 8.52039C25.32 8.52039 25.1701 8.67033 25.1701 8.8553C25.1701 9.04027 25.32 9.19022 25.505 9.19022Z" fill="white"/>
<path d="M28.6456 12.1899C29.0477 12.0407 29.3048 11.7345 29.22 11.5059C29.1352 11.2773 28.7406 11.2129 28.3385 11.362C27.9365 11.5111 27.6793 11.8174 27.7641 12.046C27.8489 12.2746 28.2436 12.339 28.6456 12.1899Z" fill="white"/>
<path d="M14.7268 57.281C7.14552 56.6721 2 49.1517 2 36.3031C2 23.4393 6.67359 13.9095 9.97708 8.56604C10.723 7.34816 11.6669 6.41953 12.7021 5.71926C14.0113 4.66884 15.1074 7.04369 13.5394 8.17023C13.0827 8.50514 6.23212 12.6764 4.55754 30.6705C2.54804 52.3334 16.0056 55.7587 16.0056 55.7587C16.0056 55.7587 17.9694 55.987 14.7268 57.281Z" fill="#AD3C1A"/>
<path d="M12.6412 16.1625C12.6412 16.1625 15.5641 16.4518 16.5993 14.8381C17.6345 13.2244 16.0969 11.2606 17.8172 10.1188C19.5374 8.97708 27.4688 7.88099 27.1339 6.52611C26.1444 2.431 24.0283 1 17.878 1C11.7278 1 7.92192 5.59748 7.73924 9.47945C7.60223 12.5241 7.95236 15.9037 12.6412 16.1625Z" fill="#780800" stroke="black" stroke-width="1.3491" stroke-miterlimit="10"/>
<path d="M23.7543 8.29203C23.7543 8.29203 23.6934 1.71551 15.1987 1.30447" stroke="black" stroke-width="1.3491" stroke-miterlimit="10" stroke-dasharray="5.4 5.4"/>
<path d="M7.34343 26.0121C7.34343 26.0121 5.10558 32.2994 6.39957 36.6381C7.69357 40.9768 8.42429 42.4534 8.42429 42.4534C8.42429 42.4534 6.12555 47.599 8.97233 48.4819C11.8191 49.3649 14.7268 49.2888 15.0617 44.2802C15.3966 39.2717 14.8638 31.4317 17.4366 27.9759" fill="#BF5931"/>
<path d="M7.34343 26.0121C7.34343 26.0121 5.10558 32.2994 6.39957 36.6381C7.69357 40.9768 8.42429 42.4534 8.42429 42.4534C8.42429 42.4534 6.12555 47.599 8.97233 48.4819C11.8191 49.3649 14.7268 49.2888 15.0617 44.2802C15.3966 39.2717 14.8638 31.4317 17.4366 27.9759" stroke="black" stroke-width="1.3491" stroke-miterlimit="10"/>
<path d="M8.68308 45.7265C8.36339 46.8073 8.71353 48.1927 8.98755 48.3145C6.3539 47.4467 8.59174 42.4687 8.59174 42.4687C8.59174 42.4687 7.84579 40.9768 6.56703 36.6533C5.47094 32.954 6.93239 27.8389 7.38909 26.4079C8.10459 26.4079 6.5518 33.2737 7.76968 37.4754C8.59174 40.3069 9.26157 40.8854 10.038 41.4335C10.7991 41.9663 9.55082 42.7275 8.68308 45.7265Z" fill="#AD3C1A"/>
<path d="M14.3767 6.99802C14.3767 6.99802 13.9352 2.49189 10.86 4.22736C7.78491 5.96283 10.5556 9.73824 12.626 8.07889" fill="#BF5931"/>
<path d="M14.3767 6.99802C14.3767 6.99802 13.9352 2.49189 10.86 4.22736C7.78491 5.96283 10.5556 9.73824 12.626 8.07889" stroke="black" stroke-width="1.3491" stroke-miterlimit="10"/>
<path d="M7.587 10.0732C7.587 10.0732 16.2491 11.4281 18.9894 10.1188V12.9961C18.9894 12.9961 12.9304 14.6554 7.84579 12.9504C7.02373 12.7677 7.03895 11.1388 7.23686 10.3472C7.3282 9.99705 7.587 10.0732 7.587 10.0732Z" fill="#F58989" stroke="black" stroke-width="1.3491" stroke-miterlimit="10"/>
<path d="M21.4556 13.8486C22.9773 13.8486 24.211 12.6149 24.211 11.0932C24.211 9.57136 22.9773 8.33771 21.4556 8.33771C19.9338 8.33771 18.7001 9.57136 18.7001 11.0932C18.7001 12.6149 19.9338 13.8486 21.4556 13.8486Z" fill="#BDCCD4" stroke="black" stroke-width="1.3491" stroke-miterlimit="10"/>
<path d="M26.6772 11.6564C28.199 11.6564 29.4326 10.4228 29.4326 8.90096C29.4326 7.37918 28.199 6.14552 26.6772 6.14552C25.1554 6.14552 23.9217 7.37918 23.9217 8.90096C23.9217 10.4228 25.1554 11.6564 26.6772 11.6564Z" fill="#BDCCD4" stroke="black" stroke-width="1.3491" stroke-miterlimit="10"/>
<path d="M22.5669 17.2586C22.5669 17.2586 25.1853 21.1863 29.0216 18.7962" stroke="black" stroke-width="1.3491" stroke-miterlimit="10" stroke-linecap="round"/>
<path d="M21.0445 17.5022C21.0445 17.5022 22.1558 17.7762 22.7648 17.076C23.3737 16.3757 22.8713 16.0408 22.8713 16.0408" stroke="black" stroke-width="1.3491" stroke-miterlimit="10" stroke-linecap="round"/>
</g>
<rect x="1" y="1" width="37" height="37" rx="18.5" stroke="#4F95EC" stroke-width="2"/>
<defs>
<clipPath id="clip0">
<rect x="1" y="1" width="37" height="37" rx="18.5" fill="white"/>
</clipPath>
</defs>
</svg>
