<svg width="39" height="39" viewBox="0 0 39 39" fill="none" xmlns="http://www.w3.org/2000/svg">
<g clip-path="url(#clip0)">
<rect x="-8" y="-9" width="53" height="55" fill="#429CEF"/>
<path d="M21.1113 3.28394C21.1113 3.28394 20.4337 0.542909 23.4211 1.06648C26.4085 1.59005 25.0226 3.88451 24.3759 3.9307" fill="white"/>
<path d="M21.1113 3.28394C21.1113 3.28394 20.4337 0.542909 23.4211 1.06648C26.4085 1.59005 25.0226 3.88451 24.3759 3.9307" stroke="black" stroke-width="1.3" stroke-miterlimit="10"/>
<path d="M26.6241 8.11926C26.6241 8.11926 27.2247 4.85465 23.6521 3.62272C20.0795 2.3908 13.0576 2.3292 9.70056 7.73428C6.34356 13.1394 1.61604 22.7946 1.61604 35.7914C1.61604 48.7882 6.82093 56.3954 14.4897 57.0113C21.3269 57.5657 28.9032 57.6427 33.8925 52.099C38.5892 46.8787 38.5276 40.2109 36.4641 33.8819C33.7231 25.4586 29.8887 20.3923 29.8887 20.3923L26.6241 8.11926Z" fill="white" stroke="black" stroke-width="1.3" stroke-miterlimit="10"/>
<path d="M28.934 21.0083C28.934 21.0083 36.3256 17.2509 34.0619 11.7688C31.7982 6.28676 27.3633 7.87286 27.3633 7.87286L25.9774 8.35024" fill="white"/>
<path d="M28.934 21.0083C28.934 21.0083 36.3256 17.2509 34.0619 11.7688C31.7982 6.28676 27.3633 7.87286 27.3633 7.87286L25.9774 8.35024" stroke="black" stroke-width="1.3" stroke-miterlimit="10"/>
<path d="M21.6502 11.4916C22.3051 11.4916 22.8359 10.9608 22.8359 10.3059C22.8359 9.65106 22.3051 9.12019 21.6502 9.12019C20.9954 9.12019 20.4645 9.65106 20.4645 10.3059C20.4645 10.9608 20.9954 11.4916 21.6502 11.4916Z" fill="black"/>
<path d="M21.1267 10.3059C21.3138 10.3059 21.4654 10.1542 21.4654 9.96714C21.4654 9.78004 21.3138 9.62836 21.1267 9.62836C20.9395 9.62836 20.7879 9.78004 20.7879 9.96714C20.7879 10.1542 20.9395 10.3059 21.1267 10.3059Z" fill="white"/>
<path d="M25.0534 9.30498C25.5977 9.30498 26.039 8.86373 26.039 8.31943C26.039 7.77513 25.5977 7.33389 25.0534 7.33389C24.5091 7.33389 24.0679 7.77513 24.0679 8.31943C24.0679 8.86373 24.5091 9.30498 25.0534 9.30498Z" fill="black"/>
<path d="M28.1891 12.4256C29.1779 12.0588 29.8092 11.3025 29.5992 10.7364C29.3892 10.1702 28.4174 10.0086 27.4286 10.3754C26.4398 10.7421 25.8085 11.4984 26.0185 12.0646C26.2285 12.6307 27.2003 12.7924 28.1891 12.4256Z" fill="black"/>
<path d="M24.6068 8.41184C24.7939 8.41184 24.9456 8.26016 24.9456 8.07306C24.9456 7.88595 24.7939 7.73428 24.6068 7.73428C24.4197 7.73428 24.2681 7.88595 24.2681 8.07306C24.2681 8.26016 24.4197 8.41184 24.6068 8.41184Z" fill="white"/>
<path d="M28.5677 11.4022C28.9744 11.2514 29.2346 10.9416 29.1488 10.7104C29.063 10.4791 28.6638 10.414 28.2571 10.5648C27.8504 10.7157 27.5903 11.0254 27.6761 11.2567C27.7619 11.4879 28.1611 11.5531 28.5677 11.4022Z" fill="white"/>
<path d="M14.4897 57.0113C6.82093 56.3953 1.61604 48.8036 1.61604 35.7914C1.61604 22.7946 6.34356 13.1393 9.70056 7.73427C10.4551 6.50235 11.4099 5.563 12.457 4.85465C13.7813 3.79211 14.89 6.19437 13.3039 7.3339C12.842 7.67268 5.91238 11.892 4.21849 30.0937C2.17041 52.0066 15.7832 55.4714 15.7832 55.4714C15.7832 55.4714 17.7697 55.7178 14.4897 57.0113Z" fill="#D8F3F5"/>
<path d="M14.1355 6.16357C14.1355 6.16357 13.6889 1.60544 10.5783 3.36094C7.46769 5.11643 10.2703 8.9354 12.3646 7.2569" fill="white"/>
<path d="M14.1355 6.16357C14.1355 6.16357 13.6889 1.60544 10.5783 3.36094C7.46769 5.11643 10.2703 8.9354 12.3646 7.2569" stroke="black" stroke-width="1.3" stroke-miterlimit="10"/>
<path d="M31.213 22.117C30.1043 26.4287 22.4356 24.9196 17.2307 21.8244C12.0258 18.7292 3.74111 21.0083 3.74111 21.0083C-0.570631 32.0186 1.36965 41.6738 1.86242 43.7065C1.89322 43.8605 2.00101 43.9683 2.12421 44.0453C2.07801 43.9529 2.49378 43.7373 5.14242 43.2137C12.8112 41.7046 35.032 45.9086 37.2649 45.9086C40.1291 38.8712 33.2149 24.9196 31.213 22.117ZM11.4406 36.6075C7.62167 36.6075 4.52646 33.5123 4.52646 29.6934C4.52646 25.8744 7.62167 22.7792 11.4406 22.7792C15.2596 22.7792 18.3548 25.8744 18.3548 29.6934C18.3548 33.5123 15.2596 36.6075 11.4406 36.6075Z" fill="#6BCDF4" stroke="black" stroke-width="1.3" stroke-miterlimit="10" stroke-linecap="round" stroke-linejoin="round"/>
<path d="M5.68139 28.4768C5.68139 28.4768 3.41773 34.8366 4.72665 39.2254C6.03557 43.6141 6.77472 45.1078 6.77472 45.1078C6.77472 45.1078 4.44946 50.3127 7.32909 51.2059C10.2087 52.099 13.1499 52.022 13.4887 46.9557C13.8275 41.8894 13.2885 33.9589 15.891 30.4633" fill="white"/>
<path d="M5.68139 28.4768C5.68139 28.4768 3.41773 34.8366 4.72665 39.2254C6.03557 43.6141 6.77472 45.1078 6.77472 45.1078C6.77472 45.1078 4.44946 50.3127 7.32909 51.2059C10.2087 52.099 13.1499 52.022 13.4887 46.9557C13.8275 41.8894 13.2885 33.9589 15.891 30.4633" stroke="black" stroke-width="1.3" stroke-miterlimit="10"/>
<path d="M7.03651 48.4186C6.71313 49.512 7.06731 50.9133 7.34449 51.0365C4.68045 50.1587 6.94412 45.1232 6.94412 45.1232C6.94412 45.1232 6.18956 43.6141 4.89604 39.2408C3.7873 35.4988 5.26562 30.3247 5.72759 28.8772C6.45135 28.8772 4.88064 35.8222 6.11257 40.0723C6.94412 42.9366 7.62168 43.5217 8.40703 44.0761C9.17698 44.6151 7.92966 45.385 7.03651 48.4186Z" fill="#D8F3F5"/>
<path d="M34.801 28.4768C34.801 28.4768 28.9186 29.755 25.2536 28.6616C26.0236 34.5903 26.5317 38.7942 26.5317 38.7942C26.5317 38.7942 35.263 39.2562 37.7885 37.4699C37.7885 37.4699 37.5267 33.9435 34.801 28.4768Z" fill="white" stroke="black" stroke-width="1.3" stroke-miterlimit="10"/>
</g>
<rect x="1" y="1" width="37" height="37" rx="18.5" stroke="#4F95EC" stroke-width="2"/>
<defs>
<clipPath id="clip0">
<rect x="1" y="1" width="37" height="37" rx="18.5" fill="white"/>
</clipPath>
</defs>
</svg>
