<svg width="706" height="862" viewBox="0 0 706 862" fill="none" xmlns="http://www.w3.org/2000/svg">
<g clip-path="url(#clip0)">
<ellipse cx="378.5" cy="818.5" rx="192.5" ry="27.5" fill="black" fill-opacity="0.2"/>
<path d="M351.684 118.557C351.684 118.557 343.902 87.0746 378.214 93.0881C412.527 99.1016 396.609 125.278 389.18 125.809" fill="#C2935B"/>
<path d="M351.684 118.557C351.684 118.557 343.902 87.0746 378.214 93.0881C412.527 99.1016 396.609 125.278 389.18 125.809" stroke="black" stroke-width="2.71056" stroke-miterlimit="10"/>
<path d="M333.997 688.602C333.997 688.602 348.5 713.187 336.827 739.186C325.33 765.186 310.12 781.812 326.038 802.682C341.956 823.552 361.411 830.096 404.037 833.634C451.614 837.525 483.097 821.43 479.736 799.145C479.736 799.145 483.274 784.641 459.927 780.75C459.927 780.75 480.797 760.764 476.199 738.302C471.6 715.84 460.458 702.044 460.458 702.044" fill="#BF5931"/>
<path d="M333.997 688.602C333.997 688.602 348.5 713.187 336.827 739.186C325.33 765.186 310.12 781.812 326.038 802.682C341.956 823.552 361.411 830.096 404.037 833.634C451.614 837.525 483.097 821.43 479.736 799.145C479.736 799.145 483.274 784.641 459.927 780.75C459.927 780.75 480.797 760.764 476.199 738.302C471.6 715.84 460.458 702.044 460.458 702.044" stroke="black" stroke-width="4" stroke-miterlimit="10"/>
<path d="M445.425 829.212C445.425 829.212 455.683 821.253 451.084 808.873C448.608 801.975 440.295 797.199 440.295 797.199" stroke="black" stroke-width="4" stroke-miterlimit="10"/>
<path d="M464.349 823.553C464.349 823.553 474.608 815.593 470.009 803.213C467.533 796.315 459.22 793.308 459.22 793.308" stroke="black" stroke-width="4" stroke-miterlimit="10"/>
<path d="M415.002 174.093C415.002 174.093 421.9 136.597 380.867 122.448C339.834 108.299 259.005 107.591 220.448 169.672C181.891 231.752 127.769 342.472 127.769 491.925C127.769 641.202 187.55 728.574 275.631 735.649C354.16 742.016 441.179 742.901 498.484 679.228C552.429 619.27 551.721 542.686 528.021 469.993C496.539 373.247 452.498 315.057 452.498 315.057L415.002 174.093Z" fill="#BF5931" stroke="black" stroke-width="4" stroke-miterlimit="10"/>
<path d="M441.356 322.132C441.356 322.132 526.252 278.976 500.253 216.011C474.253 153.046 423.315 171.264 423.315 171.264L407.397 176.747" fill="#BF5931"/>
<path d="M441.356 322.132C441.356 322.132 526.252 278.976 500.253 216.011C474.253 153.046 423.315 171.264 423.315 171.264L407.397 176.747" stroke="black" stroke-width="4" stroke-miterlimit="10"/>
<path d="M357.873 212.651C365.395 212.651 371.492 206.554 371.492 199.032C371.492 191.511 365.395 185.413 357.873 185.413C350.352 185.413 344.255 191.511 344.255 199.032C344.255 206.554 350.352 212.651 357.873 212.651Z" fill="black"/>
<path d="M351.861 199.209C354.01 199.209 355.752 197.467 355.752 195.318C355.752 193.169 354.01 191.427 351.861 191.427C349.712 191.427 347.97 193.169 347.97 195.318C347.97 197.467 349.712 199.209 351.861 199.209Z" fill="white"/>
<path d="M432.993 223.528C444.35 219.315 451.601 210.629 449.189 204.126C446.777 197.623 435.615 195.767 424.258 199.98C412.902 204.192 405.651 212.879 408.063 219.382C410.475 225.884 421.637 227.741 432.993 223.528Z" fill="black"/>
<path d="M405.983 187.182C412.234 187.182 417.302 182.114 417.302 175.862C417.302 169.611 412.234 164.543 405.983 164.543C399.731 164.543 394.663 169.611 394.663 175.862C394.663 182.114 399.731 187.182 405.983 187.182Z" fill="black"/>
<path d="M400.853 176.923C403.002 176.923 404.744 175.181 404.744 173.032C404.744 170.883 403.002 169.141 400.853 169.141C398.704 169.141 396.961 170.883 396.961 173.032C396.961 175.181 398.704 176.923 400.853 176.923Z" fill="white"/>
<path d="M437.342 211.774C442.013 210.041 445.001 206.484 444.015 203.828C443.03 201.172 438.445 200.423 433.774 202.156C429.103 203.888 426.115 207.446 427.101 210.102C428.086 212.758 432.671 213.507 437.342 211.774Z" fill="white"/>
<path d="M219.033 703.282C219.033 703.282 234.774 729.989 222.217 758.288C209.659 786.587 193.21 804.628 210.366 827.444C227.523 850.26 248.924 857.334 295.263 861.049C347.085 865.293 381.398 847.783 377.86 823.376C377.86 823.376 381.751 807.634 356.282 803.39C356.282 803.39 379.098 781.458 374.146 757.227C369.194 732.819 356.99 717.786 356.99 717.786" fill="#BF5931"/>
<path d="M219.033 703.282C219.033 703.282 234.774 729.989 222.217 758.288C209.659 786.587 193.21 804.628 210.366 827.444C227.523 850.26 248.924 857.334 295.263 861.049C347.085 865.293 381.398 847.783 377.86 823.376C377.86 823.376 381.751 807.634 356.282 803.39C356.282 803.39 379.098 781.458 374.146 757.227C369.194 732.819 356.99 717.786 356.99 717.786" stroke="black" stroke-width="1.35528" stroke-miterlimit="10"/>
<path d="M340.364 856.627C340.364 856.627 351.506 847.96 346.554 834.341C343.724 826.913 334.704 821.607 334.704 821.607" fill="#BF5931"/>
<path d="M340.364 856.627C340.364 856.627 351.506 847.96 346.554 834.341C343.724 826.913 334.704 821.607 334.704 821.607" stroke="black" stroke-width="4" stroke-miterlimit="10"/>
<path d="M360.881 850.613C360.881 850.613 372.023 841.947 367.071 828.328C364.241 820.899 355.221 817.539 355.221 817.539" fill="#BF5931"/>
<path d="M360.881 850.613C360.881 850.613 372.023 841.947 367.071 828.328C364.241 820.899 355.221 817.539 355.221 817.539" stroke="black" stroke-width="4" stroke-miterlimit="10"/>
<path d="M312.419 740.601C295.263 751.214 278.991 754.928 263.25 760.588C240.788 768.723 228.23 783.58 225.046 800.383C220.978 822.491 243.264 846.015 278.814 859.634C243.441 855.389 225.223 847.43 210.013 827.621C192.679 804.805 209.305 786.764 221.863 758.465C234.42 730.166 220.801 707.527 220.801 707.527L286.596 716.371C287.834 719.2 338.949 724.33 312.419 740.601Z" fill="#AD3C1A"/>
<path d="M219.033 703.282C219.033 703.282 234.774 729.989 222.217 758.288C209.659 786.587 193.21 804.628 210.366 827.444C227.523 850.26 248.924 857.334 295.263 861.049C347.085 865.293 381.398 847.783 377.86 823.376C377.86 823.376 381.751 807.634 356.282 803.39C356.282 803.39 379.098 781.458 374.146 757.227C369.194 732.819 356.99 717.786 356.99 717.786" stroke="black" stroke-width="4" stroke-miterlimit="10"/>
<path d="M278.631 735.649C190.55 728.574 130.769 641.201 130.769 491.925C130.769 342.472 185.067 231.752 223.448 169.672C232.114 155.522 243.08 144.733 255.107 136.597C270.318 124.394 283.052 151.985 264.835 165.073C259.529 168.964 179.938 217.426 160.483 426.484C137.136 678.167 293.488 717.962 293.488 717.962C293.488 717.962 316.303 720.615 278.631 735.649Z" fill="#AD3C1A"/>
<path d="M251.4 257.929C251.4 257.929 285.359 261.289 297.386 242.541C309.413 223.793 291.549 200.977 311.535 187.712C331.521 174.447 423.669 161.713 419.778 145.972C408.282 98.3941 383.697 81.7686 312.243 81.7686C240.788 81.7686 196.571 135.183 194.449 180.284C192.857 215.658 196.925 254.922 251.4 257.929Z" fill="#780800" stroke="black" stroke-width="4" stroke-miterlimit="10"/>
<path d="M380.513 166.488C380.513 166.488 379.806 90.0815 281.113 85.306" stroke="black" stroke-width="1.35528" stroke-miterlimit="10" stroke-dasharray="2.71 2.71"/>
<path d="M189.85 372.362C189.85 372.362 163.851 445.409 178.884 495.816C193.918 546.224 202.408 563.38 202.408 563.38C202.408 563.38 175.701 623.161 208.775 633.419C241.849 643.678 275.631 642.793 279.522 584.604C283.413 526.414 277.223 435.327 307.113 395.178" fill="#BF5931"/>
<path d="M189.85 372.362C189.85 372.362 163.851 445.409 178.884 495.816C193.918 546.224 202.408 563.38 202.408 563.38C202.408 563.38 175.701 623.161 208.775 633.419C241.849 643.678 275.631 642.793 279.522 584.604C283.413 526.414 277.223 435.327 307.113 395.178" stroke="black" stroke-width="4" stroke-miterlimit="10"/>
<path d="M213.196 634.658C213.196 634.658 222.04 635.542 228.761 607.951" stroke="black" stroke-width="4" stroke-miterlimit="10" stroke-linecap="round"/>
<path d="M232.83 638.195C232.83 638.195 249.986 634.304 251.224 601.229" stroke="black" stroke-width="4" stroke-miterlimit="10" stroke-linecap="round"/>
<path d="M205.415 601.406C201.701 613.964 205.769 630.059 208.952 631.474C178.354 621.392 204.354 563.557 204.354 563.557C204.354 563.557 195.687 546.223 180.83 495.993C168.096 453.014 185.075 393.586 190.381 376.961C198.694 376.961 180.653 456.728 194.803 505.544C204.354 538.441 212.136 545.162 221.156 551.53C229.999 557.72 215.496 566.563 205.415 601.406Z" fill="#AD3C1A"/>
<path d="M271.563 151.454C271.563 151.454 266.434 99.1014 230.706 119.264C194.979 139.427 227.169 183.291 251.223 164.012" fill="#BF5931"/>
<path d="M271.563 151.454C271.563 151.454 266.434 99.1014 230.706 119.264C194.979 139.427 227.169 183.291 251.223 164.012" stroke="black" stroke-width="4" stroke-miterlimit="10"/>
<path d="M192.68 187.182C192.68 187.182 293.318 202.923 325.154 187.712V221.14C325.154 221.14 254.761 240.419 195.687 220.61C186.136 218.487 186.313 199.563 188.612 190.365C189.673 186.297 192.68 187.182 192.68 187.182Z" fill="#F58989" stroke="black" stroke-width="4" stroke-miterlimit="10"/>
<path d="M353.807 231.045C371.487 231.045 385.82 216.712 385.82 199.032C385.82 181.351 371.487 167.019 353.807 167.019C336.126 167.019 321.793 181.351 321.793 199.032C321.793 216.712 336.126 231.045 353.807 231.045Z" fill="#BDCCD4" stroke="black" stroke-width="4" stroke-miterlimit="10"/>
<path d="M414.472 205.576C432.152 205.576 446.485 191.243 446.485 173.563C446.485 155.883 432.152 141.55 414.472 141.55C396.791 141.55 382.458 155.883 382.458 173.563C382.458 191.243 396.791 205.576 414.472 205.576Z" fill="#BDCCD4" stroke="black" stroke-width="4" stroke-miterlimit="10"/>
<path d="M366.717 270.663C366.717 270.663 397.139 316.295 441.709 288.527" stroke="black" stroke-width="4" stroke-miterlimit="10" stroke-linecap="round"/>
<path d="M349.031 273.493C349.031 273.493 361.942 276.677 369.017 268.541C376.091 260.405 370.255 256.514 370.255 256.514" stroke="black" stroke-width="4" stroke-miterlimit="10" stroke-linecap="round"/>
</g>
<defs>
<clipPath id="clip0">
<rect width="706" height="862" fill="white"/>
</clipPath>
</defs>
</svg>
