<svg width="706" height="862" viewBox="0 0 706 862" fill="none" xmlns="http://www.w3.org/2000/svg">
<ellipse cx="378.5" cy="818.5" rx="192.5" ry="27.5" fill="black" fill-opacity="0.2"/>
<path d="M351.683 107.945C351.683 107.945 343.901 76.4623 378.213 82.4758C384.227 83.537 386.88 83.7139 387.764 96.0946C399.437 90.9655 399.614 95.564 399.437 100.163C399.083 107.768 393.07 115.019 389.356 115.196" fill="#8EB86E"/>
<path d="M351.683 107.945C351.683 107.945 343.901 76.4623 378.213 82.4758C384.227 83.537 386.88 83.7139 387.764 96.0946C399.437 90.9655 399.614 95.564 399.437 100.163C399.083 107.768 393.07 115.019 389.356 115.196" stroke="black" stroke-width="4" stroke-miterlimit="10"/>
<path d="M333.996 677.99C333.996 677.99 348.499 702.575 336.826 728.574C325.33 754.574 310.119 771.199 326.037 792.07C341.955 812.94 361.411 819.484 404.036 823.022C451.613 826.913 483.096 810.818 479.735 788.532C479.735 788.532 483.273 774.029 459.926 770.138C459.926 770.138 480.797 750.152 476.198 727.69C471.599 705.228 460.457 691.432 460.457 691.432" fill="#8EB86E"/>
<path d="M333.996 677.99C333.996 677.99 348.499 702.575 336.826 728.574C325.33 754.574 310.119 771.199 326.037 792.07C341.955 812.94 361.411 819.484 404.036 823.022C451.613 826.913 483.096 810.818 479.735 788.532C479.735 788.532 483.273 774.029 459.926 770.138C459.926 770.138 480.797 750.152 476.198 727.69C471.599 705.228 460.457 691.432 460.457 691.432" stroke="black" stroke-width="4" stroke-miterlimit="10" stroke-linecap="round"/>
<path d="M453.029 779.689C453.029 779.689 480.444 750.86 476.906 730.697C473.369 710.534 459.573 691.432 459.573 691.432" fill="#8EB86E"/>
<path d="M453.029 779.689C453.029 779.689 480.444 750.86 476.906 730.697C473.369 710.534 459.573 691.432 459.573 691.432" stroke="black" stroke-width="4" stroke-miterlimit="10" stroke-linecap="round"/>
<path d="M445.423 818.6C445.423 818.6 455.681 810.641 451.083 798.26C448.607 791.362 440.294 786.587 440.294 786.587" fill="#8EB86E"/>
<path d="M445.423 818.6C445.423 818.6 455.681 810.641 451.083 798.26C448.607 791.362 440.294 786.587 440.294 786.587" stroke="black" stroke-width="4" stroke-miterlimit="10" stroke-linecap="round"/>
<path d="M464.348 813.117C464.348 813.117 474.606 805.158 470.007 792.777C467.531 785.88 459.219 782.873 459.219 782.873" fill="#8EB86E"/>
<path d="M464.348 813.117C464.348 813.117 474.606 805.158 470.007 792.777C467.531 785.88 459.219 782.873 459.219 782.873" stroke="black" stroke-width="4" stroke-miterlimit="10" stroke-linecap="round"/>
<path d="M415.002 163.481C415.002 163.481 421.9 125.985 380.866 111.836C339.833 97.6865 259.005 96.979 220.447 159.06C181.89 221.14 127.769 332.036 127.769 481.313C127.769 630.589 187.55 717.962 275.63 725.037C354.159 731.404 441.178 732.288 498.484 668.616C552.428 608.658 551.721 532.074 528.021 459.381C496.538 362.635 452.498 304.445 452.498 304.445L415.002 163.481Z" fill="#8EB86E" stroke="black" stroke-width="4" stroke-miterlimit="10"/>
<path d="M441.354 311.519C441.354 311.519 526.251 268.364 500.251 205.399C474.251 142.434 423.314 160.651 423.314 160.651L407.396 166.134" fill="#8EB86E"/>
<path d="M441.354 311.519C441.354 311.519 526.251 268.364 500.251 205.399C474.251 142.434 423.314 160.651 423.314 160.651L407.396 166.134" stroke="black" stroke-width="4" stroke-miterlimit="10"/>
<path d="M396.96 177.1C403.212 177.1 408.28 172.032 408.28 165.78C408.28 159.529 403.212 154.461 396.96 154.461C390.709 154.461 385.641 159.529 385.641 165.78C385.641 172.032 390.709 177.1 396.96 177.1Z" fill="black"/>
<path d="M432.972 212.919C444.329 208.706 451.58 200.019 449.168 193.517C446.756 187.014 435.594 185.158 424.237 189.371C412.881 193.583 405.63 202.27 408.042 208.772C410.454 215.275 421.616 217.131 432.972 212.919Z" fill="black"/>
<path d="M391.832 166.842C393.981 166.842 395.724 165.1 395.724 162.951C395.724 160.802 393.981 159.06 391.832 159.06C389.683 159.06 387.941 160.802 387.941 162.951C387.941 165.1 389.683 166.842 391.832 166.842Z" fill="white"/>
<path opacity="0.1" d="M465.055 290.649L226.637 154.461" stroke="black" stroke-width="4" stroke-miterlimit="10" stroke-dasharray="20 20"/>
<path d="M437.32 201.165C441.991 199.432 444.979 195.874 443.994 193.218C443.009 190.562 438.423 189.814 433.753 191.547C429.082 193.279 426.094 196.837 427.079 199.493C428.064 202.149 432.65 202.897 437.32 201.165Z" fill="white"/>
<path d="M331.874 256.867C316.133 281.983 331.343 299.493 344.255 300.377C357.166 301.084 370.077 283.044 383.873 281.806C397.846 280.568 425.083 293.656 433.927 282.867C442.77 272.078 433.75 243.425 410.58 236.174C381.574 226.977 347.615 231.752 331.874 256.867Z" fill="#EFCC7A" stroke="black" stroke-width="4" stroke-miterlimit="10"/>
<path d="M219.032 692.847C219.032 692.847 234.773 719.554 222.216 747.853C209.658 776.152 193.209 794.192 210.365 817.008C227.522 839.824 248.923 846.899 295.262 850.613C347.084 854.858 381.397 837.348 377.859 812.94C377.859 812.94 381.75 797.199 356.281 792.954C356.281 792.954 379.097 771.022 374.145 746.792C369.193 722.384 356.989 707.35 356.989 707.35" fill="#8EB86E"/>
<path d="M219.032 692.847C219.032 692.847 234.773 719.554 222.216 747.853C209.658 776.152 193.209 794.192 210.365 817.008C227.522 839.824 248.923 846.899 295.262 850.613C347.084 854.858 381.397 837.348 377.859 812.94C377.859 812.94 381.75 797.199 356.281 792.954C356.281 792.954 379.097 771.022 374.145 746.792C369.193 722.384 356.989 707.35 356.989 707.35" stroke="black" stroke-width="1.35" stroke-miterlimit="10" stroke-linecap="round"/>
<path d="M348.676 803.566C348.676 803.566 378.567 772.084 374.675 750.152C370.784 728.221 355.751 707.35 355.751 707.35" stroke="black" stroke-width="1.36" stroke-miterlimit="10" stroke-linecap="round"/>
<path d="M340.363 846.014C340.363 846.014 351.506 837.348 346.553 823.729C343.724 816.301 334.703 810.995 334.703 810.995" fill="#8EB86E"/>
<path d="M340.363 846.014C340.363 846.014 351.506 837.348 346.553 823.729C343.724 816.301 334.703 810.995 334.703 810.995" stroke="black" stroke-width="4" stroke-miterlimit="10" stroke-linecap="round"/>
<path d="M360.88 840.001C360.88 840.001 372.022 831.334 367.07 817.716C364.24 810.287 355.22 806.927 355.22 806.927" fill="#8EB86E"/>
<path d="M360.88 840.001C360.88 840.001 372.022 831.334 367.07 817.716C364.24 810.287 355.22 806.927 355.22 806.927" stroke="black" stroke-width="1.35528" stroke-miterlimit="10" stroke-linecap="round"/>
<path d="M314.187 729.989C297.031 740.601 280.759 744.315 265.018 749.975C242.555 758.111 229.998 772.968 226.814 789.77C222.746 811.879 249.63 835.402 285.181 849.021C249.807 844.776 226.991 836.817 211.957 817.008C194.624 794.192 211.25 776.152 223.807 747.853C236.365 719.554 220.978 701.69 220.978 701.69L288.541 705.935C289.602 708.765 340.717 713.717 314.187 729.989Z" fill="#6DA659"/>
<path d="M219.032 692.847C219.032 692.847 234.773 719.554 222.216 747.853C209.658 776.152 193.209 794.192 210.365 817.008C227.522 839.824 248.923 846.899 295.262 850.613C347.084 854.858 381.397 837.348 377.859 812.94C377.859 812.94 381.75 797.199 356.281 792.954C356.281 792.954 379.097 771.022 374.145 746.792C369.193 722.384 356.989 707.35 356.989 707.35" stroke="black" stroke-width="4" stroke-miterlimit="10" stroke-linecap="round"/>
<path d="M277.399 725.037C189.318 717.962 129.537 630.766 129.537 481.313C129.537 332.036 183.836 221.14 222.216 159.06C230.882 144.91 241.848 134.121 253.875 125.985C258.474 140.135 263.249 151.454 267.671 154.638C272.977 158.352 178.706 206.991 159.251 416.049C135.904 667.555 292.256 707.35 292.256 707.35C292.256 707.35 315.071 710.18 277.399 725.037Z" fill="#6DA659"/>
<path d="M189.849 361.927C189.849 361.927 163.849 434.973 178.883 485.381C193.917 535.788 202.406 552.944 202.406 552.944C202.406 552.944 175.699 612.726 208.774 622.984C241.848 633.242 275.63 632.358 279.521 574.168C283.412 515.979 277.222 424.892 307.112 384.743" fill="#8EB86E"/>
<path d="M189.849 361.927C189.849 361.927 163.849 434.973 178.883 485.381C193.917 535.788 202.406 552.944 202.406 552.944C202.406 552.944 175.699 612.726 208.774 622.984C241.848 633.242 275.63 632.358 279.521 574.168C283.412 515.979 277.222 424.892 307.112 384.743" stroke="black" stroke-width="4" stroke-miterlimit="10"/>
<path d="M213.195 624.222C213.195 624.222 222.038 625.106 228.759 597.515Z" fill="#8EB86E"/>
<path d="M213.195 624.222C213.195 624.222 222.038 625.106 228.759 597.515" stroke="black" stroke-width="4" stroke-miterlimit="10"/>
<path d="M232.828 627.76C232.828 627.76 249.985 623.868 251.223 590.794Z" fill="#8EB86E"/>
<path d="M232.828 627.76C232.828 627.76 249.985 623.868 251.223 590.794" stroke="black" stroke-width="4" stroke-miterlimit="10"/>
<path d="M205.413 590.794C201.699 603.351 205.767 619.446 208.95 620.861C178.352 610.78 204.352 552.944 204.352 552.944C204.352 552.944 195.685 535.611 180.828 485.381C168.094 442.402 185.073 382.974 190.379 366.349C198.692 366.349 180.652 446.116 194.801 494.931C204.352 527.829 212.134 534.55 221.154 540.917C229.998 547.107 215.495 555.951 205.413 590.794Z" fill="#6DA659"/>
<path d="M271.562 141.019C271.562 141.019 266.433 88.6662 230.705 108.829C227.168 110.775 224.338 113.074 222.039 115.373C217.263 120.326 244.501 109.537 237.249 136.067C234.066 147.386 216.379 142.965 219.74 147.74C226.637 157.822 239.902 162.951 251.222 153.754" fill="#8EB86E"/>
<path d="M271.562 141.019C271.562 141.019 266.433 88.6662 230.705 108.829C227.168 110.775 224.338 113.074 222.039 115.373C217.263 120.326 244.501 109.537 237.249 136.067C234.066 147.386 216.379 142.965 219.74 147.74C226.637 157.822 239.902 162.951 251.222 153.754" stroke="black" stroke-width="4" stroke-miterlimit="10"/>
<path d="M343.547 206.46L347.615 179.4" stroke="black" stroke-width="4" stroke-miterlimit="10" stroke-linecap="round"/>
<path d="M359.111 194.964L332.051 190.896" stroke="black" stroke-width="4" stroke-miterlimit="10" stroke-linecap="round"/>
<path opacity="0.2" d="M399.615 721.323C399.615 721.323 518.47 678.167 479.913 547.285C441.355 416.402 417.832 370.063 411.818 320.894" stroke="black" stroke-width="4" stroke-miterlimit="10" stroke-dasharray="20 20"/>
<path d="M349.207 242.187L360.526 260.758L365.478 233.874C365.478 233.874 350.268 236.351 349.207 242.187Z" fill="#EFEFEF" stroke="black" stroke-width="4" stroke-miterlimit="10" stroke-linejoin="round"/>
<path d="M419.954 243.071L408.635 261.643L403.683 234.936C403.683 234.936 418.893 237.412 419.954 243.071Z" fill="#EFEFEF" stroke="black" stroke-width="4" stroke-miterlimit="10" stroke-linejoin="round"/>
<path opacity="0.1" d="M218.501 755.458L365.478 781.458" stroke="black" stroke-width="4" stroke-miterlimit="10" stroke-dasharray="10.84 10.84"/>
</svg>
