<svg width="39" height="39" viewBox="0 0 39 39" fill="none" xmlns="http://www.w3.org/2000/svg">
<g clip-path="url(#clip0)">
<rect x="-8" y="-9" width="53" height="55" fill="#429CEF"/>
<path d="M20.4308 3.27639C20.4308 3.27639 19.7554 0.54442 22.733 1.06626C23.2548 1.15835 23.4851 1.17369 23.5618 2.24807C24.5748 1.80297 24.5901 2.20202 24.5748 2.60107C24.5441 3.26104 24.0222 3.89032 23.6999 3.90567" fill="#8EB86E"/>
<path d="M20.4308 3.27639C20.4308 3.27639 19.7554 0.54442 22.733 1.06626C23.2548 1.15835 23.4851 1.17369 23.5618 2.24807C24.5748 1.80297 24.5901 2.20202 24.5748 2.60107C24.5441 3.26104 24.0222 3.89032 23.6999 3.90567" stroke="black" stroke-width="1.34174" stroke-miterlimit="10"/>
<path d="M25.9254 8.09571C25.9254 8.09571 26.524 4.8419 22.9632 3.61405C19.4024 2.3862 12.3883 2.32481 9.04243 7.71201C5.69654 13.0992 1 22.7225 1 35.6764C1 48.6302 6.18768 56.2122 13.8311 56.8261C20.6456 57.3787 28.1969 57.4554 33.1697 51.9301C37.8509 46.727 37.7895 40.0813 35.7329 33.7732C33.0009 25.3777 29.1792 20.3282 29.1792 20.3282L25.9254 8.09571Z" fill="#8EB86E" stroke="black" stroke-width="1.34174" stroke-miterlimit="10"/>
<path d="M28.2123 20.9421C28.2123 20.9421 35.5794 17.1972 33.3232 11.7332C31.067 6.26928 26.6468 7.85014 26.6468 7.85014L25.2654 8.32593" fill="#8EB86E"/>
<path d="M28.2123 20.9421C28.2123 20.9421 35.5794 17.1972 33.3232 11.7332C31.067 6.26928 26.6468 7.85014 26.6468 7.85014L25.2654 8.32593" stroke="black" stroke-width="1.34174" stroke-miterlimit="10"/>
<path d="M24.3599 9.27752C24.9024 9.27752 25.3422 8.83774 25.3422 8.29524C25.3422 7.75274 24.9024 7.31296 24.3599 7.31296C23.8174 7.31296 23.3776 7.75274 23.3776 8.29524C23.3776 8.83774 23.8174 9.27752 24.3599 9.27752Z" fill="black"/>
<path d="M27.4849 12.3858C28.4704 12.0202 29.0996 11.2664 28.8903 10.7021C28.681 10.1379 27.7124 9.97676 26.7269 10.3423C25.7414 10.7079 25.1121 11.4617 25.3214 12.026C25.5308 12.5903 26.4994 12.7513 27.4849 12.3858Z" fill="black"/>
<path d="M23.9148 8.38733C24.1013 8.38733 24.2525 8.23615 24.2525 8.04967C24.2525 7.86318 24.1013 7.71201 23.9148 7.71201C23.7283 7.71201 23.5771 7.86318 23.5771 8.04967C23.5771 8.23615 23.7283 8.38733 23.9148 8.38733Z" fill="white"/>
<path opacity="0.1" d="M30.2689 19.131L9.57962 7.31296" stroke="black" stroke-width="1.34174" stroke-miterlimit="10" stroke-dasharray="5.37 5.37"/>
<path d="M27.8622 11.3658C28.2675 11.2155 28.5268 10.9067 28.4413 10.6762C28.3558 10.4458 27.9579 10.3808 27.5526 10.5312C27.1473 10.6815 26.888 10.9902 26.9735 11.2207C27.059 11.4512 27.4569 11.5162 27.8622 11.3658Z" fill="white"/>
<path d="M18.7118 16.1995C17.3458 18.379 18.6657 19.8984 19.7861 19.9752C20.9066 20.0366 22.027 18.4711 23.2241 18.3636C24.4366 18.2562 26.8003 19.392 27.5677 18.4557C28.3351 17.5195 27.5523 15.0331 25.5417 14.4038C23.0246 13.6057 20.0778 14.0201 18.7118 16.1995Z" fill="#EFCC7A" stroke="black" stroke-width="1.34174" stroke-miterlimit="10"/>
<path d="M13.9845 56.8261C6.34116 56.2122 1.15348 48.6455 1.15348 35.6764C1.15348 22.7225 5.86536 13.0992 9.19591 7.71201C9.94797 6.48416 10.8996 5.54792 11.9432 4.8419C12.3423 6.06976 12.7567 7.05204 13.1404 7.32831C13.6008 7.65062 5.42027 11.8714 3.73197 30.0129C1.70601 51.838 15.2738 55.2913 15.2738 55.2913C15.2738 55.2913 17.2537 55.5369 13.9845 56.8261Z" fill="#6DA659"/>
<path d="M6.3872 25.3163C6.3872 25.3163 4.13103 31.6551 5.43562 36.0294C6.74021 40.4036 7.47692 41.8924 7.47692 41.8924C7.47692 41.8924 5.15935 47.08 8.02946 47.9702C10.8996 48.8604 13.8311 48.7837 14.1687 43.7341C14.5064 38.6846 13.9692 30.7803 16.563 27.2963" fill="#8EB86E"/>
<path d="M6.3872 25.3163C6.3872 25.3163 4.13103 31.6551 5.43562 36.0294C6.74021 40.4036 7.47692 41.8924 7.47692 41.8924C7.47692 41.8924 5.15935 47.08 8.02946 47.9702C10.8996 48.8604 13.8311 48.7837 14.1687 43.7341C14.5064 38.6846 13.9692 30.7803 16.563 27.2963" stroke="black" stroke-width="1.34174" stroke-miterlimit="10"/>
<path d="M7.73784 45.1769C7.41553 46.2666 7.76853 47.6633 8.0448 47.786C5.38957 46.9112 7.64575 41.8923 7.64575 41.8923C7.64575 41.8923 6.89369 40.3882 5.60444 36.0294C4.49938 32.2998 5.9728 27.1428 6.43324 25.7C7.15461 25.7 5.5891 32.6221 6.81695 36.8582C7.64575 39.7129 8.32107 40.2961 9.10382 40.8487C9.87123 41.3859 8.61268 42.1533 7.73784 45.1769Z" fill="#6DA659"/>
<path d="M13.4781 6.1465C13.4781 6.1465 13.033 1.60344 9.93263 3.35313C9.62566 3.52196 9.38009 3.72149 9.18057 3.92101C8.76617 4.35076 11.1298 3.41452 10.5005 5.71675C10.2242 6.69903 8.68943 6.31533 8.98104 6.72973C9.57962 7.60457 10.7307 8.04967 11.713 7.25156" fill="#8EB86E"/>
<path d="M13.4781 6.1465C13.4781 6.1465 13.033 1.60344 9.93263 3.35313C9.62566 3.52196 9.38009 3.72149 9.18057 3.92101C8.76617 4.35076 11.1298 3.41452 10.5005 5.71675C10.2242 6.69903 8.68943 6.31533 8.98104 6.72973C9.57962 7.60457 10.7307 8.04967 11.713 7.25156" stroke="black" stroke-width="1.34174" stroke-miterlimit="10"/>
<path d="M19.7248 11.8253L20.0778 9.47705" stroke="black" stroke-width="1.34174" stroke-miterlimit="10" stroke-linecap="round"/>
<path d="M21.0754 10.8277L18.7271 10.4747" stroke="black" stroke-width="1.34174" stroke-miterlimit="10" stroke-linecap="round"/>
<path opacity="0.2" d="M24.5901 56.5038C24.5901 56.5038 34.9041 52.7589 31.5582 41.4012C28.2123 30.0436 26.171 26.0224 25.6491 21.7556" stroke="black" stroke-width="1.34174" stroke-miterlimit="10" stroke-dasharray="5.37 5.37"/>
<path d="M20.2159 14.9256L21.1982 16.5372L21.6279 14.2043C21.6279 14.2043 20.308 14.4191 20.2159 14.9256Z" fill="#EFEFEF" stroke="black" stroke-width="1.34174" stroke-miterlimit="10" stroke-linejoin="round"/>
<path d="M26.3552 15.0024L25.3729 16.6139L24.9431 14.2964C24.9431 14.2964 26.2631 14.5112 26.3552 15.0024Z" fill="#EFEFEF" stroke="black" stroke-width="1.34174" stroke-miterlimit="10" stroke-linejoin="round"/>
</g>
<rect x="1" y="1" width="37" height="37" rx="18.5" stroke="#4F95EC" stroke-width="2"/>
<defs>
<clipPath id="clip0">
<rect x="1" y="1" width="37" height="37" rx="18.5" fill="white"/>
</clipPath>
</defs>
</svg>
