<svg width="706" height="862" viewBox="0 0 706 862" fill="none" xmlns="http://www.w3.org/2000/svg">
<ellipse cx="378.5" cy="818.5" rx="192.5" ry="27.5" fill="black" fill-opacity="0.2"/>
<path d="M351.684 107.945C351.684 107.945 343.901 76.4627 378.214 82.4762C412.526 88.4897 396.608 114.666 389.18 115.197" fill="#C2935B"/>
<path d="M351.684 107.945C351.684 107.945 343.901 76.4627 378.214 82.4762C412.526 88.4897 396.608 114.666 389.18 115.197" stroke="black" stroke-width="4" stroke-miterlimit="10"/>
<path d="M333.996 677.991C333.996 677.991 348.5 702.575 336.826 728.575C325.33 754.574 310.119 771.2 326.037 792.07C341.956 812.941 361.411 819.485 404.036 823.022C451.614 826.913 483.096 810.818 479.736 788.533C479.736 788.533 483.273 774.03 459.926 770.139C459.926 770.139 480.797 750.153 476.198 727.69C471.6 705.228 460.457 691.433 460.457 691.433" fill="#C2935B"/>
<path d="M333.996 677.991C333.996 677.991 348.5 702.575 336.826 728.575C325.33 754.574 310.119 771.2 326.037 792.07C341.956 812.941 361.411 819.485 404.036 823.022C451.614 826.913 483.096 810.818 479.736 788.533C479.736 788.533 483.273 774.03 459.926 770.139C459.926 770.139 480.797 750.153 476.198 727.69C471.6 705.228 460.457 691.433 460.457 691.433" stroke="black" stroke-width="4" stroke-miterlimit="10"/>
<path d="M453.028 779.689C453.028 779.689 480.443 750.86 476.906 730.697C473.368 710.534 459.573 691.432 459.573 691.432" stroke="black" stroke-width="1.35528" stroke-miterlimit="10"/>
<path d="M445.423 818.6C445.423 818.6 455.681 810.641 451.082 798.261C448.606 791.363 440.293 786.587 440.293 786.587" stroke="black" stroke-width="4" stroke-miterlimit="10"/>
<path d="M464.348 813.118C464.348 813.118 474.606 805.159 470.008 792.778C467.532 785.88 459.219 782.873 459.219 782.873" stroke="black" stroke-width="4" stroke-miterlimit="10"/>
<path d="M415.002 163.482C415.002 163.482 421.9 125.986 380.867 111.836C339.833 97.6868 259.005 96.9793 220.447 159.06C181.89 221.141 127.769 332.037 127.769 481.313C127.769 630.59 187.55 717.962 275.63 725.037C354.16 731.404 441.179 732.289 498.484 668.616C552.428 608.658 551.721 532.074 528.021 459.382C496.538 362.635 452.498 304.445 452.498 304.445L415.002 163.482Z" fill="#C2935B" stroke="black" stroke-width="4" stroke-miterlimit="10"/>
<path d="M441.355 311.52C441.355 311.52 526.251 268.364 500.252 205.399C474.252 142.434 423.314 160.652 423.314 160.652L407.396 166.135" fill="#C2935B"/>
<path d="M441.355 311.52C441.355 311.52 526.251 268.364 500.252 205.399C474.252 142.434 423.314 160.652 423.314 160.652L407.396 166.135" stroke="black" stroke-width="4" stroke-miterlimit="10"/>
<path d="M357.874 202.216C365.396 202.216 371.493 196.118 371.493 188.597C371.493 181.076 365.396 174.978 357.874 174.978C350.353 174.978 344.256 181.076 344.256 188.597C344.256 196.118 350.353 202.216 357.874 202.216Z" fill="black"/>
<path d="M351.86 188.597C354.009 188.597 355.751 186.855 355.751 184.706C355.751 182.557 354.009 180.815 351.86 180.815C349.711 180.815 347.969 182.557 347.969 184.706C347.969 186.855 349.711 188.597 351.86 188.597Z" fill="white"/>
<path d="M396.961 177.101C403.213 177.101 408.281 172.033 408.281 165.781C408.281 159.529 403.213 154.461 396.961 154.461C390.71 154.461 385.642 159.529 385.642 165.781C385.642 172.033 390.71 177.101 396.961 177.101Z" fill="black"/>
<path d="M432.973 212.919C444.329 208.707 451.58 200.02 449.168 193.517C446.756 187.015 435.594 185.158 424.237 189.371C412.881 193.584 405.63 202.27 408.042 208.773C410.454 215.276 421.616 217.132 432.973 212.919Z" fill="black"/>
<path d="M391.833 166.842C393.982 166.842 395.724 165.1 395.724 162.951C395.724 160.802 393.982 159.06 391.833 159.06C389.684 159.06 387.942 160.802 387.942 162.951C387.942 165.1 389.684 166.842 391.833 166.842Z" fill="white"/>
<path d="M437.321 201.165C441.992 199.433 444.98 195.875 443.995 193.219C443.009 190.563 438.424 189.815 433.753 191.547C429.082 193.28 426.095 196.838 427.08 199.494C428.065 202.15 432.65 202.898 437.321 201.165Z" fill="white"/>
<path d="M331.874 275.439C316.133 250.324 331.344 232.814 344.255 231.93C357.166 231.045 370.078 249.263 383.873 250.501C397.669 251.739 425.084 238.651 433.927 249.44C442.77 260.228 433.75 288.881 410.58 296.133C381.574 305.33 347.615 300.554 331.874 275.439Z" fill="#E96163" stroke="black" stroke-width="4" stroke-miterlimit="10"/>
<path d="M219.032 692.847C219.032 692.847 234.773 719.554 222.216 747.853C209.658 776.152 193.209 794.193 210.366 817.008C227.522 839.824 248.923 846.899 295.262 850.613C347.084 854.858 381.397 837.348 377.859 812.94C377.859 812.94 381.751 797.199 356.282 792.954C356.282 792.954 379.098 771.023 374.145 746.792C369.193 722.384 356.989 707.35 356.989 707.35" fill="#C2935B"/>
<path d="M219.032 692.847C219.032 692.847 234.773 719.554 222.216 747.853C209.658 776.152 193.209 794.193 210.366 817.008C227.522 839.824 248.923 846.899 295.262 850.613C347.084 854.858 381.397 837.348 377.859 812.94C377.859 812.94 381.751 797.199 356.282 792.954C356.282 792.954 379.098 771.023 374.145 746.792C369.193 722.384 356.989 707.35 356.989 707.35" stroke="black" stroke-width="4" stroke-miterlimit="10"/>
<path d="M348.677 803.567C348.677 803.567 378.567 772.084 374.676 750.153C370.785 728.221 355.751 707.351 355.751 707.351" fill="#C2935B"/>
<path d="M348.677 803.567C348.677 803.567 378.567 772.084 374.676 750.153C370.785 728.221 355.751 707.351 355.751 707.351" stroke="black" stroke-width="1.35528" stroke-miterlimit="10"/>
<path d="M340.364 846.015C340.364 846.015 351.507 837.348 346.554 823.73C343.724 816.301 334.704 810.995 334.704 810.995" fill="#C2935B"/>
<path d="M340.364 846.015C340.364 846.015 351.507 837.348 346.554 823.73C343.724 816.301 334.704 810.995 334.704 810.995" stroke="black" stroke-width="4" stroke-miterlimit="10"/>
<path d="M360.88 840.001C360.88 840.001 372.023 831.335 367.071 817.716C364.241 810.287 355.221 806.927 355.221 806.927" fill="#C2935B"/>
<path d="M360.88 840.001C360.88 840.001 372.023 831.335 367.071 817.716C364.241 810.287 355.221 806.927 355.221 806.927" stroke="black" stroke-width="4" stroke-miterlimit="10"/>
<path d="M312.419 729.989C295.262 740.602 278.99 744.316 263.249 749.976C240.787 758.111 228.229 772.968 225.046 789.771C220.978 811.879 243.263 835.403 278.814 849.022C243.44 844.777 225.223 836.818 210.012 817.009C192.679 794.193 209.305 776.152 221.862 747.853C234.42 719.554 227.345 700.099 227.345 700.099L286.596 705.935C287.834 708.765 338.949 713.718 312.419 729.989Z" fill="#99613D"/>
<path d="M219.032 692.847C219.032 692.847 234.773 719.554 222.216 747.853C209.658 776.152 193.209 794.193 210.366 817.008C227.522 839.824 248.923 846.899 295.262 850.613C347.084 854.858 381.397 837.348 377.859 812.94C377.859 812.94 381.751 797.199 356.282 792.954C356.282 792.954 379.098 771.023 374.145 746.792C369.193 722.384 356.989 707.35 356.989 707.35" stroke="black" stroke-width="1.35528" stroke-miterlimit="10"/>
<path d="M277.63 725.037C189.55 717.962 129.769 630.767 129.769 481.313C129.769 332.037 184.067 221.141 222.447 159.06C231.114 144.911 242.08 134.122 254.107 125.986C269.317 113.782 282.052 141.373 263.835 154.461C258.529 158.352 178.938 206.814 159.482 415.872C136.136 667.555 292.487 707.35 292.487 707.35C292.487 707.35 315.303 710.18 277.63 725.037Z" fill="#99613D"/>
<path d="M189.85 361.927C189.85 361.927 163.85 434.974 178.884 485.381C193.918 535.789 202.407 552.945 202.407 552.945C202.407 552.945 175.7 612.726 208.774 622.984C241.849 633.243 275.631 632.358 279.522 574.169C283.413 515.979 277.222 424.892 307.113 384.743" fill="#C2935B"/>
<path d="M189.85 361.927C189.85 361.927 163.85 434.974 178.884 485.381C193.918 535.789 202.407 552.945 202.407 552.945C202.407 552.945 175.7 612.726 208.774 622.984C241.849 633.243 275.631 632.358 279.522 574.169C283.413 515.979 277.222 424.892 307.113 384.743" stroke="black" stroke-width="4" stroke-miterlimit="10" stroke-linecap="round"/>
<path d="M213.196 624.222C213.196 624.222 222.039 625.107 228.76 597.515" stroke="black" stroke-width="1.35528" stroke-miterlimit="10" stroke-linecap="round"/>
<path d="M232.828 627.76C232.828 627.76 249.985 623.869 251.223 590.794" stroke="black" stroke-width="1.35528" stroke-miterlimit="10" stroke-linecap="round"/>
<path d="M205.414 590.794C201.699 603.352 205.767 619.447 208.951 620.862C178.353 610.78 204.353 552.945 204.353 552.945C204.353 552.945 195.686 535.612 180.829 485.381C168.095 442.402 185.074 382.975 190.38 366.349C198.693 366.349 180.652 446.117 194.802 494.932C204.353 527.829 212.135 534.55 221.155 540.918C229.998 547.108 215.495 555.951 205.414 590.794Z" fill="#99613D"/>
<path d="M271.563 141.019C271.563 141.019 266.433 88.6666 230.706 108.83C194.979 128.992 227.169 172.856 251.223 153.577" fill="#C2935B"/>
<path d="M271.563 141.019C271.563 141.019 266.433 88.6666 230.706 108.83C194.979 128.992 227.169 172.856 251.223 153.577" stroke="black" stroke-width="4" stroke-miterlimit="10"/>
</svg>
