<svg width="39" height="38" viewBox="0 0 39 38" fill="none" xmlns="http://www.w3.org/2000/svg">
<g clip-path="url(#clip0)">
<rect x="-8" y="-10" width="53" height="55" fill="#EF4242"/>
<path d="M20.6385 2.43173C20.6385 2.43173 19.9613 -0.307814 22.9471 0.21547C25.9329 0.738753 24.5478 3.01658 23.9014 3.06275" fill="#C2935B"/>
<path d="M20.6385 2.43173C20.6385 2.43173 19.9613 -0.307814 22.9471 0.21547C25.9329 0.738753 24.5478 3.01658 23.9014 3.06275" stroke="black" stroke-width="1.34545" stroke-miterlimit="10"/>
<path d="M26.1484 7.26441C26.1484 7.26441 26.7486 4.00158 23.178 2.77033C19.6073 1.53907 12.5738 1.47751 9.21863 6.87964C5.86345 12.2818 1.1539 21.9317 1.1539 34.9215C1.1539 47.9112 6.35596 55.5142 14.0205 56.1299C20.854 56.6839 28.4262 56.7609 33.4128 51.2202C38.107 46.0028 38.0454 39.3386 35.983 33.013C33.2435 24.5943 29.4112 19.5308 29.4112 19.5308L26.1484 7.26441Z" fill="#C2935B" stroke="black" stroke-width="1.34545" stroke-miterlimit="10"/>
<path d="M28.4416 20.1464C28.4416 20.1464 35.8291 16.3911 33.5667 10.912C31.3043 5.43292 26.8717 7.01816 26.8717 7.01816L25.4866 7.49527" fill="#C2935B"/>
<path d="M28.4416 20.1464C28.4416 20.1464 35.8291 16.3911 33.5667 10.912C31.3043 5.43292 26.8717 7.01816 26.8717 7.01816L25.4866 7.49527" stroke="black" stroke-width="1.34545" stroke-miterlimit="10"/>
<path d="M21.1772 10.635C21.8317 10.635 22.3623 10.1044 22.3623 9.44989C22.3623 8.79538 21.8317 8.2648 21.1772 8.2648C20.5227 8.2648 19.9921 8.79538 19.9921 9.44989C19.9921 10.1044 20.5227 10.635 21.1772 10.635Z" fill="black"/>
<path d="M20.6539 9.44989C20.8409 9.44989 20.9925 9.29829 20.9925 9.11129C20.9925 8.92429 20.8409 8.7727 20.6539 8.7727C20.4669 8.7727 20.3153 8.92429 20.3153 9.11129C20.3153 9.29829 20.4669 9.44989 20.6539 9.44989Z" fill="white"/>
<path d="M24.5785 8.44949C25.1225 8.44949 25.5635 8.00849 25.5635 7.46449C25.5635 6.92048 25.1225 6.47948 24.5785 6.47948C24.0345 6.47948 23.5935 6.92048 23.5935 7.46449C23.5935 8.00849 24.0345 8.44949 24.5785 8.44949Z" fill="black"/>
<path d="M27.7122 11.5664C28.7004 11.1998 29.3314 10.4439 29.1215 9.87806C28.9116 9.31221 27.9403 9.15068 26.9521 9.51726C25.9638 9.88384 25.3329 10.6397 25.5428 11.2056C25.7527 11.7714 26.7239 11.9329 27.7122 11.5664Z" fill="black"/>
<path d="M24.1322 7.55683C24.3192 7.55683 24.4708 7.40524 24.4708 7.21824C24.4708 7.03124 24.3192 6.87964 24.1322 6.87964C23.9452 6.87964 23.7936 7.03124 23.7936 7.21824C23.7936 7.40524 23.9452 7.55683 24.1322 7.55683Z" fill="white"/>
<path d="M28.0906 10.5436C28.497 10.3928 28.757 10.0832 28.6713 9.85209C28.5855 9.62097 28.1866 9.55584 27.7801 9.70661C27.3737 9.85738 27.1137 10.167 27.1994 10.3981C27.2851 10.6292 27.6841 10.6943 28.0906 10.5436Z" fill="white"/>
<path d="M18.9148 17.0067C17.545 14.8212 18.8686 13.2976 19.9921 13.2206C21.1156 13.1437 22.2392 14.7289 23.4396 14.8366C24.6401 14.9444 27.0257 13.8055 27.7952 14.7443C28.5647 15.6831 27.7798 18.1764 25.7636 18.8074C23.2396 19.6077 20.2845 19.1922 18.9148 17.0067Z" fill="#E96163" stroke="black" stroke-width="1.34545" stroke-miterlimit="10"/>
<path d="M26.7179 18.3303C25.6097 16.7143 23.4858 16.0987 21.9467 16.2064C20.777 16.2834 19.9152 17.0683 19.4227 17.6685C19.238 17.4684 19.0687 17.253 18.9148 17.0067C17.545 14.8212 18.8686 13.2822 19.9921 13.2206C21.1156 13.1437 22.2392 14.7289 23.4396 14.8366C24.6555 14.9598 27.0257 13.8055 27.7952 14.7443C28.457 15.5138 28.0261 17.3607 26.7179 18.3303Z" fill="#E96163" stroke="black" stroke-width="1.34545" stroke-miterlimit="10"/>
<path d="M14.0205 56.1299C6.35596 55.5142 1.1539 47.9266 1.1539 34.9215C1.1539 21.9317 5.87884 12.2818 9.21863 6.87964C9.97277 5.64839 10.927 4.70955 11.9736 4.00158C13.2972 2.93962 14.4053 5.34057 12.82 6.47948C12.3583 6.81808 5.43251 11.0351 3.73954 29.2269C1.70797 51.1279 15.3133 54.5908 15.3133 54.5908C15.3133 54.5908 17.2987 54.837 14.0205 56.1299Z" fill="#99613D"/>
<path d="M6.55604 24.5328C6.55604 24.5328 4.2936 30.8891 5.60181 35.2755C6.91002 39.6618 7.64878 41.1547 7.64878 41.1547C7.64878 41.1547 5.32478 46.3568 8.20284 47.2494C11.0809 48.1421 14.0205 48.0651 14.3591 43.0016C14.6977 37.9381 14.159 30.0119 16.7601 26.5182" fill="#C2935B"/>
<path d="M6.55604 24.5328C6.55604 24.5328 4.2936 30.8891 5.60181 35.2755C6.91002 39.6618 7.64878 41.1547 7.64878 41.1547C7.64878 41.1547 5.32478 46.3568 8.20284 47.2494C11.0809 48.1421 14.0205 48.0651 14.3591 43.0016C14.6977 37.9381 14.159 30.0119 16.7601 26.5182" stroke="black" stroke-width="1.34545" stroke-miterlimit="10" stroke-linecap="round"/>
<path d="M7.91042 44.4483C7.58721 45.5411 7.9412 46.9416 8.21823 47.0647C5.55564 46.1875 7.81807 41.1547 7.81807 41.1547C7.81807 41.1547 7.06393 39.6464 5.77111 35.2755C4.66298 31.5355 6.14049 26.3643 6.60221 24.9175C7.32557 24.9175 5.75572 31.8587 6.98697 36.1066C7.81807 38.9692 8.49526 39.5541 9.28019 40.1082C10.0497 40.6468 8.78769 41.4164 7.91042 44.4483Z" fill="#99613D"/>
<path d="M13.6665 5.30979C13.6665 5.30979 13.2202 0.754144 10.1113 2.50868C7.00236 4.26322 9.80347 8.08011 11.8966 6.40253" fill="#C2935B"/>
<path d="M13.6665 5.30979C13.6665 5.30979 13.2202 0.754144 10.1113 2.50868C7.00236 4.26322 9.80347 8.08011 11.8966 6.40253" stroke="black" stroke-width="1.34545" stroke-miterlimit="10"/>
<path d="M26.7179 18.3303C26.4408 18.5304 26.133 18.6997 25.779 18.8074C23.5166 19.5154 20.9309 19.2692 19.4227 17.6685C19.9152 17.0683 20.777 16.2834 21.9467 16.2064C23.4858 16.0987 25.6097 16.7143 26.7179 18.3303Z" fill="#F58989" stroke="black" stroke-width="1.34545" stroke-miterlimit="10"/>
</g>
<rect x="1" width="37" height="37" rx="18.5" stroke="#4F95EC" stroke-width="2"/>
<defs>
<clipPath id="clip0">
<rect x="1" width="37" height="37" rx="18.5" fill="white"/>
</clipPath>
</defs>
</svg>
