<svg width="706" height="862" viewBox="0 0 706 862" fill="none" xmlns="http://www.w3.org/2000/svg">
<ellipse cx="378.5" cy="818.5" rx="192.5" ry="27.5" fill="black" fill-opacity="0.2"/>
<path d="M353.948 107.869C353.948 107.869 346.327 76.4721 379.93 82.4694C413.533 88.4666 397.944 114.749 390.669 115.278" fill="white"/>
<path d="M353.948 107.869C353.948 107.869 346.327 76.4721 379.93 82.4694C413.533 88.4666 397.944 114.749 390.669 115.278" stroke="black" stroke-width="4" stroke-miterlimit="10"/>
<path d="M336.626 676.374C336.626 676.374 350.829 700.892 339.397 726.822C327.965 752.751 313.242 769.331 328.831 790.145C344.421 810.959 363.474 817.486 405.218 821.014C451.812 824.894 482.644 808.843 479.353 786.618C479.353 786.618 482.817 772.154 459.953 768.273C459.953 768.273 480.392 748.341 475.889 725.94C471.385 703.538 460.473 689.78 460.473 689.78" fill="white"/>
<path d="M336.626 676.374C336.626 676.374 350.829 700.892 339.397 726.822C327.965 752.751 313.242 769.331 328.831 790.145C344.421 810.959 363.474 817.486 405.218 821.014C451.812 824.894 482.644 808.843 479.353 786.618C479.353 786.618 482.817 772.154 459.953 768.273C459.953 768.273 480.392 748.341 475.889 725.94C471.385 703.538 460.473 689.78 460.473 689.78" stroke="black" stroke-width="4" stroke-miterlimit="10"/>
<path d="M453.198 777.798C453.198 777.798 480.046 749.047 476.581 728.938C473.117 708.83 459.607 689.78 459.607 689.78" fill="white"/>
<path d="M453.198 777.798C453.198 777.798 480.046 749.047 476.581 728.938C473.117 708.83 459.607 689.78 459.607 689.78" stroke="black" stroke-width="4" stroke-miterlimit="10"/>
<path d="M445.75 816.604C445.75 816.604 455.796 808.666 451.293 796.319C448.868 789.44 440.727 784.677 440.727 784.677" fill="white"/>
<path d="M445.75 816.604C445.75 816.604 455.796 808.666 451.293 796.319C448.868 789.44 440.727 784.677 440.727 784.677" stroke="black" stroke-width="4" stroke-miterlimit="10"/>
<path d="M464.283 811.136C464.283 811.136 474.329 803.198 469.825 790.851C467.4 783.972 459.26 780.973 459.26 780.973" fill="white"/>
<path d="M464.283 811.136C464.283 811.136 474.329 803.198 469.825 790.851C467.4 783.972 459.26 780.973 459.26 780.973" stroke="black" stroke-width="4" stroke-miterlimit="10"/>
<path d="M415.958 163.256C415.958 163.256 422.713 125.861 382.528 111.75C342.343 97.6389 263.358 96.9334 225.598 158.846C187.837 220.759 134.661 331.356 134.661 480.229C134.661 629.102 193.207 716.238 279.467 723.294C356.373 729.644 441.593 730.526 497.714 667.025C550.543 607.229 549.851 530.852 526.64 458.356C495.808 361.871 452.679 303.839 452.679 303.839L415.958 163.256Z" fill="white" stroke="black" stroke-width="4" stroke-miterlimit="10"/>
<path d="M441.939 310.894C441.939 310.894 525.081 267.855 499.618 205.06C474.156 142.266 424.271 160.434 424.271 160.434L408.682 165.902" fill="white"/>
<path d="M441.939 310.894C441.939 310.894 525.081 267.855 499.618 205.06C474.156 142.266 424.271 160.434 424.271 160.434L408.682 165.902" stroke="black" stroke-width="4" stroke-miterlimit="10"/>
<path d="M360.009 201.885C367.375 201.885 373.347 195.804 373.347 188.303C373.347 180.802 367.375 174.721 360.009 174.721C352.643 174.721 346.672 180.802 346.672 188.303C346.672 195.804 352.643 201.885 360.009 201.885Z" fill="black"/>
<path d="M354.121 188.303C356.226 188.303 357.932 186.566 357.932 184.423C357.932 182.28 356.226 180.542 354.121 180.542C352.016 180.542 350.31 182.28 350.31 184.423C350.31 186.566 352.016 188.303 354.121 188.303Z" fill="white"/>
<path d="M398.29 176.838C404.412 176.838 409.375 171.784 409.375 165.549C409.375 159.314 404.412 154.26 398.29 154.26C392.167 154.26 387.204 159.314 387.204 165.549C387.204 171.784 392.167 176.838 398.29 176.838Z" fill="black"/>
<path d="M433.56 212.583C444.682 208.382 451.783 199.719 449.421 193.234C447.059 186.749 436.127 184.897 425.005 189.099C413.884 193.3 406.782 201.963 409.145 208.448C411.507 214.933 422.438 216.785 433.56 212.583Z" fill="black"/>
<path d="M393.266 166.607C395.371 166.607 397.077 164.87 397.077 162.727C397.077 160.583 395.371 158.846 393.266 158.846C391.162 158.846 389.456 160.583 389.456 162.727C389.456 164.87 391.162 166.607 393.266 166.607Z" fill="white"/>
<path d="M437.82 200.861C442.395 199.133 445.321 195.585 444.356 192.936C443.391 190.287 438.9 189.541 434.326 191.269C429.752 192.997 426.826 196.545 427.791 199.194C428.755 201.843 433.246 202.589 437.82 200.861Z" fill="white"/>
<path d="M224.039 691.191C224.039 691.191 239.455 717.826 227.157 746.048C214.859 774.27 198.75 792.262 215.552 815.016C232.353 837.771 253.312 844.826 298.693 848.53C349.445 852.764 383.048 835.301 379.583 810.959C379.583 810.959 383.394 795.261 358.452 791.027C358.452 791.027 380.796 769.155 375.946 744.99C371.096 720.648 359.144 705.655 359.144 705.655" fill="white"/>
<path d="M224.039 691.191C224.039 691.191 239.455 717.826 227.157 746.048C214.859 774.27 198.75 792.262 215.552 815.016C232.353 837.771 253.312 844.826 298.693 848.53C349.445 852.764 383.048 835.301 379.583 810.959C379.583 810.959 383.394 795.261 358.452 791.027C358.452 791.027 380.796 769.155 375.946 744.99C371.096 720.648 359.144 705.655 359.144 705.655" stroke="black" stroke-width="4" stroke-miterlimit="10"/>
<path d="M351.002 801.611C351.002 801.611 380.275 770.213 376.464 748.341C372.653 726.469 357.93 705.655 357.93 705.655" fill="white"/>
<path d="M351.002 801.611C351.002 801.611 380.275 770.213 376.464 748.341C372.653 726.469 357.93 705.655 357.93 705.655" stroke="black" stroke-width="4" stroke-miterlimit="10"/>
<path d="M343.035 843.944C343.035 843.944 353.947 835.301 349.097 821.719C346.326 814.311 337.492 809.019 337.492 809.019" fill="white"/>
<path d="M343.035 843.944C343.035 843.944 353.947 835.301 349.097 821.719C346.326 814.311 337.492 809.019 337.492 809.019" stroke="black" stroke-width="4" stroke-miterlimit="10"/>
<path d="M363.127 837.947C363.127 837.947 374.04 829.304 369.19 815.722C366.418 808.313 357.584 804.962 357.584 804.962" fill="white"/>
<path d="M363.127 837.947C363.127 837.947 374.04 829.304 369.19 815.722C366.418 808.313 357.584 804.962 357.584 804.962" stroke="black" stroke-width="4" stroke-miterlimit="10"/>
<path d="M315.667 728.233C298.866 738.816 282.93 742.52 267.514 748.165C245.516 756.278 233.218 771.095 230.1 787.852C226.116 809.901 247.941 833.361 282.757 846.943C248.114 842.709 230.274 834.772 215.377 815.016C198.403 792.262 214.684 774.27 226.983 746.048C239.281 717.826 232.352 698.423 232.352 698.423L290.378 704.244C291.591 707.066 341.476 712.005 315.667 728.233Z" fill="#D8F3F5"/>
<path d="M224.039 691.191C224.039 691.191 239.455 717.826 227.157 746.048C214.859 774.27 198.75 792.262 215.552 815.016C232.353 837.771 253.312 844.826 298.693 848.53C349.445 852.764 383.048 835.301 379.583 810.959C379.583 810.959 383.394 795.261 358.452 791.027C358.452 791.027 380.796 769.155 375.946 744.99C371.096 720.648 359.144 705.655 359.144 705.655" stroke="black" stroke-width="4" stroke-miterlimit="10"/>
<path d="M279.467 723.294C193.207 716.238 134.661 629.278 134.661 480.228C134.661 331.355 187.837 220.759 225.598 158.846C234.085 144.735 244.824 133.975 256.603 125.861C271.499 113.69 283.97 141.207 266.129 154.26C260.933 158.141 182.987 206.471 163.934 414.964C140.897 665.967 294.016 705.655 294.016 705.655C294.016 705.655 316.361 708.477 279.467 723.294Z" fill="#D8F3F5"/>
<path d="M275.482 140.854C275.482 140.854 270.459 88.6431 235.47 108.751C200.481 128.86 232.006 172.605 255.563 153.378" fill="white"/>
<path d="M275.482 140.854C275.482 140.854 270.459 88.6431 235.47 108.751C200.481 128.86 232.006 172.605 255.563 153.378" stroke="black" stroke-width="4" stroke-miterlimit="10"/>
<path d="M225.091 153.675C225.091 153.675 314.519 157.52 398.999 111.746C421.444 111.38 417.909 134.267 417.909 134.267C417.909 134.267 334.313 198.167 212.896 174.914C207.771 170.153 216.961 152.576 225.091 153.675Z" fill="#F58989" stroke="black" stroke-width="4" stroke-miterlimit="10"/>
<path d="M467.574 323.594C455.103 372.984 368.843 355.697 310.298 320.243C251.752 284.789 158.564 310.894 158.564 310.894C110.065 437.013 131.889 547.609 137.432 570.893C137.779 572.657 138.991 573.891 140.377 574.773C139.857 573.715 144.534 571.246 174.326 565.248C260.586 547.962 510.531 596.117 535.647 596.117C567.864 515.506 490.092 355.697 467.574 323.594ZM245.17 489.577C202.213 489.577 167.398 454.123 167.398 410.378C167.398 366.633 202.213 331.179 245.17 331.179C288.127 331.179 322.942 366.633 322.942 410.378C322.942 454.123 288.127 489.577 245.17 489.577Z" fill="#6BCDF4" stroke="black" stroke-width="4" stroke-miterlimit="10" stroke-linecap="round" stroke-linejoin="round"/>
<path d="M180.388 396.443C180.388 396.443 154.926 469.292 169.649 519.564C184.372 569.835 192.686 586.944 192.686 586.944C192.686 586.944 166.531 646.564 198.922 656.795C231.313 667.026 264.396 666.144 268.207 608.111C272.017 550.079 265.955 459.238 295.228 419.198" fill="white"/>
<path d="M180.388 396.443C180.388 396.443 154.926 469.292 169.649 519.564C184.372 569.835 192.686 586.944 192.686 586.944C192.686 586.944 166.531 646.564 198.922 656.795C231.313 667.026 264.396 666.144 268.207 608.111C272.017 550.079 265.955 459.238 295.228 419.198" stroke="black" stroke-width="4" stroke-miterlimit="10"/>
<path d="M203.252 658.03C203.252 658.03 211.912 658.911 218.494 631.395Z" fill="white"/>
<path d="M203.252 658.03C203.252 658.03 211.912 658.911 218.494 631.395" stroke="black" stroke-width="7.17357" stroke-miterlimit="10"/>
<path d="M222.652 661.557C222.652 661.557 239.454 657.677 240.666 624.692Z" fill="white"/>
<path d="M222.652 661.557C222.652 661.557 239.454 657.677 240.666 624.692" stroke="black" stroke-width="7.17357" stroke-miterlimit="10"/>
<path d="M195.631 624.868C191.993 637.392 195.977 653.443 199.095 654.855C169.129 644.8 194.591 587.121 194.591 587.121C194.591 587.121 186.104 569.835 171.554 519.74C159.083 476.877 175.711 417.61 180.908 401.029C189.049 401.029 171.381 480.581 185.238 529.265C194.591 562.073 202.213 568.776 211.047 575.126C219.707 581.3 205.677 590.119 195.631 624.868Z" fill="#D8F3F5"/>
<path d="M507.933 396.443C507.933 396.443 441.766 411.084 400.541 398.56C409.202 466.47 414.918 514.625 414.918 514.625C414.918 514.625 513.129 519.916 541.536 499.455C541.536 499.455 538.591 459.062 507.933 396.443Z" fill="white" stroke="black" stroke-width="4" stroke-miterlimit="10"/>
</svg>
