<svg width="34" height="497" viewBox="0 0 34 497" fill="none" xmlns="http://www.w3.org/2000/svg">
<g clip-path="url(#clip0)">
<rect x="16.5212" y="0.990585" width="16.5213" height="16.5213" fill="white"/>
<rect y="17.5119" width="16.5213" height="16.5213" fill="white"/>
<rect x="16.5212" y="34.0331" width="16.5213" height="16.5213" fill="white"/>
<rect y="50.5544" width="16.5213" height="16.5213" fill="white"/>
<rect x="16.5212" y="67.0757" width="16.5213" height="16.5213" fill="white"/>
<rect y="83.597" width="16.5213" height="16.5213" fill="white"/>
<rect x="16.5212" y="100.118" width="16.5213" height="16.5213" fill="white"/>
<rect y="116.64" width="16.5213" height="16.5213" fill="white"/>
<rect x="16.5212" y="133.161" width="16.5213" height="16.5213" fill="white"/>
<rect y="149.682" width="16.5213" height="16.5213" fill="white"/>
<rect x="16.5212" y="166.203" width="16.5213" height="16.5213" fill="white"/>
<rect y="182.725" width="16.5213" height="16.5213" fill="white"/>
<rect x="16.5212" y="199.246" width="16.5213" height="16.5213" fill="white"/>
<rect y="215.767" width="16.5213" height="16.5213" fill="white"/>
<rect x="16.5212" y="232.288" width="16.5213" height="16.5213" fill="white"/>
<rect y="248.81" width="16.5213" height="16.5213" fill="white"/>
<rect x="16.5212" y="265.331" width="16.5213" height="16.5213" fill="white"/>
<rect y="281.852" width="16.5213" height="16.5213" fill="white"/>
<rect x="16.5212" y="298.374" width="16.5213" height="16.5213" fill="white"/>
<rect y="314.895" width="16.5213" height="16.5213" fill="white"/>
<rect x="16.5212" y="331.416" width="16.5213" height="16.5213" fill="white"/>
<rect y="347.937" width="16.5213" height="16.5213" fill="white"/>
<rect x="16.5212" y="364.459" width="16.5213" height="16.5213" fill="white"/>
<rect y="380.98" width="16.5213" height="16.5213" fill="white"/>
<rect x="16.5212" y="397.501" width="16.5213" height="16.5213" fill="white"/>
<rect y="414.022" width="16.5213" height="16.5213" fill="white"/>
<rect x="16.5212" y="430.544" width="16.5213" height="16.5213" fill="white"/>
<rect y="447.065" width="16.5213" height="16.5213" fill="white"/>
<rect x="16.5212" y="463.586" width="16.5213" height="16.5213" fill="white"/>
<rect y="480.108" width="16.5213" height="16.5213" fill="white"/>
<rect x="16.5213" y="480.108" width="16.5213" height="16.5213" transform="rotate(-180 16.5213 480.108)" fill="#2B1D03"/>
<rect x="33.0426" y="496.629" width="16.5213" height="16.5213" transform="rotate(-180 33.0426 496.629)" fill="#2B1D03"/>
<rect x="33.0426" y="463.586" width="16.5213" height="16.5213" transform="rotate(-180 33.0426 463.586)" fill="#2B1D03"/>
<rect x="16.5213" y="447.065" width="16.5213" height="16.5213" transform="rotate(-180 16.5213 447.065)" fill="#2B1D03"/>
<rect x="33.0426" y="430.544" width="16.5213" height="16.5213" transform="rotate(-180 33.0426 430.544)" fill="#2B1D03"/>
<rect x="16.5213" y="414.022" width="16.5213" height="16.5213" transform="rotate(-180 16.5213 414.022)" fill="#2B1D03"/>
<rect x="33.0426" y="397.501" width="16.5213" height="16.5213" transform="rotate(-180 33.0426 397.501)" fill="#2B1D03"/>
<rect x="16.5213" y="380.98" width="16.5213" height="16.5213" transform="rotate(-180 16.5213 380.98)" fill="#2B1D03"/>
<rect x="33.0426" y="364.459" width="16.5213" height="16.5213" transform="rotate(-180 33.0426 364.459)" fill="#2B1D03"/>
<rect x="16.5213" y="347.937" width="16.5213" height="16.5213" transform="rotate(-180 16.5213 347.937)" fill="#2B1D03"/>
<rect x="33.0426" y="331.416" width="16.5213" height="16.5213" transform="rotate(-180 33.0426 331.416)" fill="#2B1D03"/>
<rect x="16.5213" y="314.895" width="16.5213" height="16.5213" transform="rotate(-180 16.5213 314.895)" fill="#2B1D03"/>
<rect x="33.0426" y="298.374" width="16.5213" height="16.5213" transform="rotate(-180 33.0426 298.374)" fill="#2B1D03"/>
<rect x="16.5213" y="281.852" width="16.5213" height="16.5213" transform="rotate(-180 16.5213 281.852)" fill="#2B1D03"/>
<rect x="33.0426" y="265.331" width="16.5213" height="16.5213" transform="rotate(-180 33.0426 265.331)" fill="#2B1D03"/>
<rect x="16.5213" y="248.81" width="16.5213" height="16.5213" transform="rotate(-180 16.5213 248.81)" fill="#2B1D03"/>
<rect x="33.0426" y="232.288" width="16.5213" height="16.5213" transform="rotate(-180 33.0426 232.288)" fill="#2B1D03"/>
<rect x="16.5213" y="215.767" width="16.5213" height="16.5213" transform="rotate(-180 16.5213 215.767)" fill="#2B1D03"/>
<rect x="33.0426" y="199.246" width="16.5213" height="16.5213" transform="rotate(-180 33.0426 199.246)" fill="#2B1D03"/>
<rect x="16.5213" y="182.725" width="16.5213" height="16.5213" transform="rotate(-180 16.5213 182.725)" fill="#2B1D03"/>
<rect x="33.0426" y="166.203" width="16.5213" height="16.5213" transform="rotate(-180 33.0426 166.203)" fill="#2B1D03"/>
<rect x="16.5213" y="149.682" width="16.5213" height="16.5213" transform="rotate(-180 16.5213 149.682)" fill="#2B1D03"/>
<rect x="33.0426" y="133.161" width="16.5213" height="16.5213" transform="rotate(-180 33.0426 133.161)" fill="#2B1D03"/>
<rect x="16.5213" y="116.64" width="16.5213" height="16.5213" transform="rotate(-180 16.5213 116.64)" fill="#2B1D03"/>
<rect x="33.0426" y="100.118" width="16.5213" height="16.5213" transform="rotate(-180 33.0426 100.118)" fill="#2B1D03"/>
<rect x="16.5213" y="83.597" width="16.5213" height="16.5213" transform="rotate(-180 16.5213 83.597)" fill="#2B1D03"/>
<rect x="33.0426" y="67.0757" width="16.5213" height="16.5213" transform="rotate(-180 33.0426 67.0757)" fill="#2B1D03"/>
<rect x="16.5213" y="50.5544" width="16.5213" height="16.5213" transform="rotate(-180 16.5213 50.5544)" fill="#2B1D03"/>
<rect x="33.0426" y="34.0331" width="16.5213" height="16.5213" transform="rotate(-180 33.0426 34.0331)" fill="#2B1D03"/>
<rect x="16.5213" y="17.5119" width="16.5213" height="16.5213" transform="rotate(-180 16.5213 17.5119)" fill="#2B1D03"/>
</g>
<defs>
<clipPath id="clip0">
<rect width="33.0426" height="495.638" fill="white" transform="translate(0 0.990585)"/>
</clipPath>
</defs>
</svg>
